<mxfile host="Electron" agent="Mozilla/5.0 (X11; Linux x86_64) AppleWebKit/537.36 (KHTML, like Gecko) draw.io/26.2.15 Chrome/134.0.6998.205 Electron/35.2.1 Safari/537.36" version="26.2.15">
  <diagram name="Diagrama de Clases - GYMFINTECH" id="gym-fintech-diagram">
    <mxGraphModel dx="2492" dy="2060" grid="1" gridSize="10" guides="1" tooltips="1" connect="1" arrows="1" fold="1" page="1" pageScale="1" pageWidth="827" pageHeight="1169" math="0" shadow="0">
      <root>
        <mxCell id="0" />
        <mxCell id="1" parent="0" />
        <mxCell id="Usuario" value="&lt;b&gt;&lt;br&gt;&lt;br&gt;&lt;br&gt;&lt;br&gt;&lt;br&gt;&lt;/b&gt;&lt;div&gt;&lt;b&gt;Usuario&lt;/b&gt;&lt;br&gt;&lt;br&gt;- id: String&lt;br&gt;- nombre: String&lt;br&gt;- email: String&lt;br&gt;- contraseÃ±a: String&lt;/div&gt;" style="swimlane;html=1;" parent="1" vertex="1">
          <mxGeometry x="30" y="-60" width="200" height="120" as="geometry" />
        </mxCell>
        <mxCell id="UsuarioFinal" value="&lt;b&gt;&lt;br&gt;&lt;br&gt;&lt;/b&gt;&lt;div&gt;&lt;b&gt;UsuarioFinal&lt;/b&gt;&lt;br&gt;&lt;br&gt;- objetivos: String&lt;/div&gt;" style="swimlane;html=1;" parent="1" vertex="1">
          <mxGeometry x="324" y="-40" width="180" height="80" as="geometry" />
        </mxCell>
        <mxCell id="Entrenador" value="&lt;b&gt;&lt;br&gt;&lt;br&gt;&lt;br&gt;Entrenador&lt;/b&gt;&lt;br&gt;&lt;br&gt;- especialidad: String" style="swimlane;html=1;startSize=0;" parent="1" vertex="1">
          <mxGeometry x="40" y="200" width="180" height="80" as="geometry" />
        </mxCell>
        <mxCell id="Administrador" value="&lt;b&gt;Administrador&lt;/b&gt;" style="swimlane;html=1;" parent="1" vertex="1">
          <mxGeometry x="320" y="-220" width="180" height="60" as="geometry" />
        </mxCell>
        <mxCell id="PerfilFisico" value="&lt;b&gt;&lt;br&gt;&lt;br&gt;&lt;br&gt;&lt;br&gt;&lt;br&gt;PerfilFisico&lt;/b&gt;&lt;br&gt;&lt;br&gt;- altura: Float&lt;br&gt;- peso: Float&lt;br&gt;- grasa: Float&lt;br&gt;- musculo: Float" style="swimlane;html=1;" parent="1" vertex="1">
          <mxGeometry x="314" y="150" width="200" height="100" as="geometry" />
        </mxCell>
        <mxCell id="Medicion" value="&lt;b&gt;&lt;br&gt;&lt;br&gt;&lt;br&gt;&lt;br&gt;&lt;/b&gt;&lt;div&gt;&lt;b&gt;Medicion&lt;/b&gt;&lt;br&gt;&lt;br&gt;- fecha: Date&lt;br&gt;- tipo: String&lt;br&gt;- valor: Float&lt;/div&gt;" style="swimlane;html=1;" parent="1" vertex="1">
          <mxGeometry x="314" y="340" width="200" height="80" as="geometry" />
        </mxCell>
        <mxCell id="Cita" value="&lt;b&gt;&lt;br&gt;&lt;br&gt;&lt;br&gt;&lt;/b&gt;&lt;div&gt;&lt;b&gt;Cita&lt;/b&gt;&lt;br&gt;&lt;br&gt;- fecha: Date&lt;br&gt;- motivo: String&lt;/div&gt;" style="swimlane;html=1;" parent="1" vertex="1">
          <mxGeometry x="580" y="-40" width="200" height="80" as="geometry" />
        </mxCell>
        <mxCell id="Notificacion" value="&lt;b&gt;Notificacion&lt;/b&gt;&#xa;- mensaje: String&#xa;- leida: Boolean" style="swimlane;html=1;" parent="1" vertex="1">
          <mxGeometry x="30" y="-280" width="200" height="80" as="geometry" />
        </mxCell>
        <mxCell id="Acceso" value="&lt;b&gt;&lt;br&gt;&lt;br&gt;&lt;br&gt;&lt;/b&gt;&lt;div&gt;&lt;b&gt;Acceso&lt;/b&gt;&lt;br&gt;&lt;br&gt;- fecha: Date&lt;br&gt;- tipo: String&lt;/div&gt;" style="swimlane;html=1;" parent="1" vertex="1">
          <mxGeometry x="-250" y="-40" width="200" height="80" as="geometry" />
        </mxCell>
        <mxCell id="Reporte" value="&lt;b&gt;&lt;br&gt;&lt;br&gt;&lt;br&gt;Reporte&lt;/b&gt;&lt;br&gt;&lt;br&gt;- fecha: Date&lt;br&gt;- resumen: String" style="swimlane;html=1;" parent="1" vertex="1">
          <mxGeometry x="580" y="-230" width="200" height="80" as="geometry" />
        </mxCell>
        <mxCell id="Rel1" style="endArrow=block;html=1;" parent="1" source="Usuario" target="UsuarioFinal" edge="1">
          <mxGeometry relative="1" as="geometry" />
        </mxCell>
        <mxCell id="Rel2" style="endArrow=block;html=1;" parent="1" source="Usuario" target="Entrenador" edge="1">
          <mxGeometry relative="1" as="geometry" />
        </mxCell>
        <mxCell id="Rel3" style="endArrow=block;html=1;" parent="1" source="Usuario" target="Administrador" edge="1">
          <mxGeometry relative="1" as="geometry" />
        </mxCell>
        <mxCell id="Rel4" style="endArrow=block;html=1;" parent="1" source="UsuarioFinal" target="PerfilFisico" edge="1">
          <mxGeometry relative="1" as="geometry" />
        </mxCell>
        <mxCell id="Rel5" style="endArrow=block;html=1;" parent="1" source="PerfilFisico" target="Medicion" edge="1">
          <mxGeometry relative="1" as="geometry" />
        </mxCell>
        <mxCell id="Rel6" style="endArrow=block;html=1;" parent="1" source="UsuarioFinal" target="Cita" edge="1">
          <mxGeometry relative="1" as="geometry" />
        </mxCell>
        <mxCell id="Rel7" style="endArrow=block;html=1;" parent="1" source="Usuario" target="Notificacion" edge="1">
          <mxGeometry relative="1" as="geometry" />
        </mxCell>
        <mxCell id="Rel8" style="endArrow=block;html=1;" parent="1" source="Usuario" target="Acceso" edge="1">
          <mxGeometry relative="1" as="geometry" />
        </mxCell>
        <mxCell id="Rel9" style="endArrow=block;html=1;" parent="1" source="Administrador" target="Reporte" edge="1">
          <mxGeometry relative="1" as="geometry" />
        </mxCell>
      </root>
    </mxGraphModel>
  </diagram>
</mxfile>
